{
  "extensionsUsed": [
    "KHR_materials_transmission",
    "KHR_materials_clearcoat",
    "KHR_materials_ior",
    "KHR_materials_specular"
  ],
  "accessors": [
    {
      "bufferView": 0,
      "componentType": 5126,
      "count": 418,
      "type": "VEC3",
      "max": [
        0.597004,
        0.037,
        0.19953421
      ],
      "min": [
        -1.0122582E-05,
        -9.086776E-10,
        -0.19953421
      ]
    },
    {
      "bufferView": 1,
      "componentType": 5125,
      "count": 750,
      "type": "SCALAR",
      "max": [
        417.0
      ],
      "min": [
        0.0
      ]
    },
    {
      "bufferView": 2,
      "componentType": 5126,
      "count": 418,
      "type": "VEC3",
      "max": [
        1.0,
        1.0,
        1.0
      ],
      "min": [
        -1.0,
        -1.0,
        -1.0
      ]
    },
    {
      "bufferView": 3,
      "componentType": 5126,
      "count": 418,
      "type": "VEC2",
      "max": [
        1.0004742,
        1.0014181
      ],
      "min": [
        -0.0007710302,
        0.0
      ]
    }
  ],
  "asset": {
    "version": "2.0"
  },
  "buffers": [
    {
      "uri": "data:application/octet-stream;base64,",
      "byteLength": 5016
    },
    {
      "uri": "data:application/octet-stream;base64,",
      "byteLength": 3000
    },
    {
      "uri": "data:application/octet-stream;base64,",
      "byteLength": 5016
    },
    {
      "uri": "data:application/octet-stream;base64,",
      "byteLength": 3344
    }
  ],
  "bufferViews": [
    {
      "buffer": 0,
      "byteLength": 5016,
      "target": 34962
    },
    {
      "buffer": 1,
      "byteLength": 3000,
      "target": 34963
    },
    {
      "buffer": 2,
      "byteLength": 5016,
      "target": 34962
    },
    {
      "buffer": 3,
      "byteLength": 3344,
      "target": 34962
    }
  ],
  "materials": [
    {
      "pbrMetallicRoughness": {
        "baseColorFactor": [
          0.0,
          0.0,
          0.0,
          1.0
        ]
      },
      "doubleSided": true
    }
  ],
  "meshes": [
    {
      "primitives": [
        {
          "attributes": {
            "POSITION": 0,
            "NORMAL": 2,
            "TEXCOORD_0": 3
          },
          "indices": 1,
          "material": 0
        }
      ]
    }
  ],
  "nodes": [
    {
      "mesh": 0
    },
    {
      "children": [
        0
      ],
      "name": "Default"
    }
  ],
  "samplers": [
    {
      "magFilter": 9729,
      "minFilter": 9729
    }
  ],
  "scene": 0,
  "scenes": [
    {
      "nodes": [
        1
      ],
      "extensions": {}
    }
  ],
  "extensions": {}
}