<?xml version="1.0" encoding="utf-8" standalone="no"?>
<!DOCTYPE svg PUBLIC "-//W3C//DTD SVG 1.1//EN" "http://www.w3.org/Graphics/SVG/1.1/DTD/svg11.dtd">
<svg version="1.1" width="792pt" height="576pt" viewBox="0 0 792 576" overflow="visible"
     xmlns="http://www.w3.org/2000/svg">
    <polygon fill="#5B5B5B" fill-opacity="1" points="-166440660,-25502448 -166440670,-25502396 -166440640,-25502396"
             xmlns=""/>
    <polygon fill="#5B5B5B" fill-opacity="1" points="-166440660,-25502162 -166440640,-25502216 -166440670,-25502216"
             xmlns=""/>
    <polygon fill="#5B5B5B" fill-opacity="1" points="-166440600,-25499818 -166440660,-25499832 -166440660,-25499804"
             xmlns=""/>
    <polygon fill="#5B5B5B" fill-opacity="1" points="-166440460,-25499818 -166440420,-25499804 -166440420,-25499832"
             xmlns=""/>
    <polygon fill="#5B5B5B" fill-opacity="1" points="-166440830,-25499790 -166440850,-25499738 -166440820,-25499738"
             xmlns=""/>
    <polygon fill="#5B5B5B" fill-opacity="1" points="-166440830,-25499504 -166440820,-25499558 -166440850,-25499558"
             xmlns=""/>
    <polygon fill="#5B5B5B" fill-opacity="1" points="-166439250,-25505654 -166439260,-25505600 -166439230,-25505600"
             xmlns=""/>
    <polygon fill="#5B5B5B" fill-opacity="1" points="-166439250,-25505116 -166439230,-25505170 -166439260,-25505170"
             xmlns=""/>
    <polygon fill="#5B5B5B" fill-opacity="1" points="-166440510,-25491122 -166440530,-25491068 -166440510,-25491068"
             xmlns=""/>
    <polygon fill="#5B5B5B" fill-opacity="1" points="-166440510,-25490620 -166440510,-25490674 -166440530,-25490674"
             xmlns=""/>
    <polygon fill="#5B5B5B" fill-opacity="1" points="-166440140,-25490370 -166440210,-25490384 -166440210,-25490356"
             xmlns=""/>
    <polygon fill="#5B5B5B" fill-opacity="1" points="-166440460,-25490370 -166440400,-25490356 -166440400,-25490384"
             xmlns=""/>
    <polygon fill="#5B5B5B" fill-opacity="1" points="-166440130,-25487458 -166440110,-25487512 -166440130,-25487512"
             xmlns=""/>
    <polygon fill="#5B5B5B" fill-opacity="1" points="-166440130,-25487206 -166440130,-25487152 -166440110,-25487152"
             xmlns=""/>
    <polygon fill="#5B5B5B" fill-opacity="1" points="-166435550,-25495874 -166435570,-25495820 -166435540,-25495820"
             xmlns=""/>
    <polygon fill="#5B5B5B" fill-opacity="1" points="-166435550,-25495586 -166435540,-25495640 -166435570,-25495640"
             xmlns=""/>
    <polygon fill="#5B5B5B" fill-opacity="1" points="-166439310,-25487170 -166439300,-25487224 -166439330,-25487224"
             xmlns=""/>
    <polygon fill="#5B5B5B" fill-opacity="1" points="-166439310,-25487584 -166439330,-25487530 -166439300,-25487530"
             xmlns=""/>
    <polygon fill="#5B5B5B" fill-opacity="1" points="-166439890,-25487622 -166439840,-25487608 -166439840,-25487636"
             xmlns=""/>
    <polygon fill="#5B5B5B" fill-opacity="1" points="-166439600,-25487622 -166439660,-25487636 -166439660,-25487608"
             xmlns=""/>
    <polygon fill="#5B5B5B" fill-opacity="1" points="-166439920,-25490870 -166439940,-25490816 -166439900,-25490816"
             xmlns=""/>
    <polygon fill="#5B5B5B" fill-opacity="1" points="-166439920,-25491122 -166439900,-25491176 -166439940,-25491176"
             xmlns=""/>
    <polygon fill="#5B5B5B" fill-opacity="1" points="-166440600,-25502564 -166440540,-25502552 -166440540,-25502578"
             xmlns=""/>
    <polygon fill="#5B5B5B" fill-opacity="1" points="-166440180,-25502564 -166440220,-25502578 -166440220,-25502552"
             xmlns=""/>
    <polygon fill="#5B5B5B" fill-opacity="1" points="-166440140,-25494414 -166440140,-25494468 -166440160,-25494468"
             xmlns=""/>
    <polygon fill="#5B5B5B" fill-opacity="1" points="-166440140,-25495060 -166440160,-25495006 -166440140,-25495006"
             xmlns=""/>
    <polygon fill="#5B5B5B" fill-opacity="1" points="-166440340,-25487170 -166440320,-25487224 -166440350,-25487224"
             xmlns=""/>
    <polygon fill="#5B5B5B" fill-opacity="1" points="-166440340,-25487458 -166440350,-25487404 -166440320,-25487404"
             xmlns=""/>
    <polygon fill="#5B5B5B" fill-opacity="1" points="-166440600,-25499958 -166440560,-25499944 -166440560,-25499972"
             xmlns=""/>
    <polygon fill="#5B5B5B" fill-opacity="1" points="-166440130,-25499958 -166440180,-25499972 -166440180,-25499944"
             xmlns=""/>
    <polygon fill="#5B5B5B" fill-opacity="1" points="-166435680,-25496020 -166435620,-25496006 -166435620,-25496032"
             xmlns=""/>
    <polygon fill="#5B5B5B" fill-opacity="1" points="-166435180,-25496020 -166435250,-25496032 -166435250,-25496006"
             xmlns=""/>
    <polygon fill="#5B5B5B" fill-opacity="1" points="-166440540,-25502482 -166440500,-25502470 -166440500,-25502496"
             xmlns=""/>
    <polygon fill="#5B5B5B" fill-opacity="1" points="-166440220,-25502482 -166440290,-25502496 -166440290,-25502470"
             xmlns=""/>
    <polygon fill="#5B5B5B" fill-opacity="1" points="-166439090,-25504982 -166439070,-25505036 -166439100,-25505036"
             xmlns=""/>
    <polygon fill="#5B5B5B" fill-opacity="1" points="-166439090,-25505788 -166439100,-25505734 -166439070,-25505734"
             xmlns=""/>
    <polygon fill="#5B5B5B" fill-opacity="1" points="-166439650,-25505958 -166439600,-25505944 -166439600,-25505972"
             xmlns=""/>
    <polygon fill="#5B5B5B" fill-opacity="1" points="-166439360,-25505958 -166439420,-25505972 -166439420,-25505944"
             xmlns=""/>
    <polygon fill="#5B5B5B" fill-opacity="1" points="-166440080,-25502430 -166440060,-25502484 -166440080,-25502484"
             xmlns=""/>
    <polygon fill="#5B5B5B" fill-opacity="1" points="-166440080,-25502180 -166440080,-25502126 -166440060,-25502126"
             xmlns=""/>
    <polygon fill="#5B5B5B" fill-opacity="1" points="-166440020,-25494898 -166440030,-25494844 -166440000,-25494844"
             xmlns=""/>
    <polygon fill="#5B5B5B" fill-opacity="1" points="-166440020,-25494414 -166440000,-25494468 -166440030,-25494468"
             xmlns=""/>
    <polygon fill="#5B5B5B" fill-opacity="1" points="-166439840,-25494016 -166439790,-25494002 -166439790,-25494030"
             xmlns=""/>
    <polygon fill="#5B5B5B" fill-opacity="1" points="-166439540,-25494016 -166439580,-25494030 -166439580,-25494002"
             xmlns=""/>
    <polygon fill="#5B5B5B" fill-opacity="1" points="-166439890,-25487824 -166439840,-25487812 -166439840,-25487838"
             xmlns=""/>
    <polygon fill="#5B5B5B" fill-opacity="1" points="-166439580,-25487824 -166439650,-25487838 -166439650,-25487812"
             xmlns=""/>
    <polygon fill="#5B5B5B" fill-opacity="1" points="-166439460,-25487584 -166439470,-25487530 -166439440,-25487530"
             xmlns=""/>
    <polygon fill="#5B5B5B" fill-opacity="1" points="-166439460,-25487206 -166439440,-25487260 -166439470,-25487260"
             xmlns=""/>
    <polygon fill="#5B5B5B" fill-opacity="1" points="-166439580,-25486956 -166439650,-25486970 -166439650,-25486942"
             xmlns=""/>
    <polygon fill="#5B5B5B" fill-opacity="1" points="-166440060,-25486956 -166440020,-25486942 -166440020,-25486970"
             xmlns=""/>
    <polygon fill="#5B5B5B" fill-opacity="1" points="-166439710,-25491158 -166439710,-25491104 -166439700,-25491104"
             xmlns=""/>
    <polygon fill="#5B5B5B" fill-opacity="1" points="-166439710,-25490870 -166439700,-25490924 -166439710,-25490924"
             xmlns=""/>
    <polygon fill="#5B5B5B" fill-opacity="1" points="-166436380,-25495298 -166436340,-25495284 -166436340,-25495312"
             xmlns=""/>
    <polygon fill="#5B5B5B" fill-opacity="1" points="-166435900,-25495298 -166435970,-25495312 -166435970,-25495284"
             xmlns=""/>
    <polygon fill="#5B5B5B" fill-opacity="1" points="-166436060,-25496016 -166436130,-25496030 -166436130,-25496004"
             xmlns=""/>
    <polygon fill="#5B5B5B" fill-opacity="1" points="-166436380,-25496016 -166436340,-25496004 -166436340,-25496030"
             xmlns=""/>
    <polygon fill="#5B5B5B" fill-opacity="1" points="-166440720,-25499772 -166440700,-25499826 -166440720,-25499826"
             xmlns=""/>
    <polygon fill="#5B5B5B" fill-opacity="1" points="-166440720,-25499522 -166440720,-25499468 -166440700,-25499468"
             xmlns=""/>
    <polygon fill="#5B5B5B" fill-opacity="1" points="-166436530,-25495874 -166436510,-25495926 -166436540,-25495926"
             xmlns=""/>
    <polygon fill="#5B5B5B" fill-opacity="1" points="-166436530,-25495622 -166436540,-25495568 -166436510,-25495568"
             xmlns=""/>
    <polygon fill="#5B5B5B" fill-opacity="1" points="-166435760,-25495874 -166435780,-25495820 -166435740,-25495820"
             xmlns=""/>
    <polygon fill="#5B5B5B" fill-opacity="1" points="-166435760,-25495586 -166435740,-25495640 -166435780,-25495640"
             xmlns=""/>
    <polygon fill="#5B5B5B" fill-opacity="1" points="-166435420,-25495874 -166435410,-25495926 -166435440,-25495926"
             xmlns=""/>
    <polygon fill="#5B5B5B" fill-opacity="1" points="-166435420,-25495622 -166435440,-25495568 -166435410,-25495568"
             xmlns=""/>
    <polygon fill="#5B5B5B" fill-opacity="1" points="-166435520,-25495410 -166435460,-25495398 -166435460,-25495424"
             xmlns=""/>
    <polygon fill="#5B5B5B" fill-opacity="1" points="-166435180,-25495410 -166435250,-25495424 -166435250,-25495398"
             xmlns=""/>
    <polygon fill="#5B5B5B" fill-opacity="1" points="-166439980,-25487074 -166439920,-25487060 -166439920,-25487086"
             xmlns=""/>
    <polygon fill="#5B5B5B" fill-opacity="1" points="-166439600,-25487074 -166439660,-25487086 -166439660,-25487060"
             xmlns=""/>
    <polygon fill="#5B5B5B" fill-opacity="1" points="-166440110,-25491254 -166440180,-25491268 -166440180,-25491242"
             xmlns=""/>
    <polygon fill="#5B5B5B" fill-opacity="1" points="-166440430,-25491254 -166440380,-25491242 -166440380,-25491268"
             xmlns=""/>
    <polygon fill="#5B5B5B" fill-opacity="1" points="-166440140,-25490514 -166440210,-25490528 -166440210,-25490502"
             xmlns=""/>
    <polygon fill="#5B5B5B" fill-opacity="1" points="-166440430,-25490514 -166440380,-25490502 -166440380,-25490528"
             xmlns=""/>
    <polygon fill="#5B5B5B" fill-opacity="1" points="-166439820,-25494150 -166439760,-25494136 -166439760,-25494164"
             xmlns=""/>
    <polygon fill="#5B5B5B" fill-opacity="1" points="-166439540,-25494150 -166439580,-25494164 -166439580,-25494136"
             xmlns=""/>
    <polygon fill="#5B5B5B" fill-opacity="1" points="-166439660,-25504802 -166439620,-25504788 -166439620,-25504816"
             xmlns=""/>
    <polygon fill="#5B5B5B" fill-opacity="1" points="-166439360,-25504802 -166439410,-25504816 -166439410,-25504788"
             xmlns=""/>
    <polygon fill="#5B5B5B" fill-opacity="1" points="-166440460,-25491372 -166440400,-25491358 -166440400,-25491386"
             xmlns=""/>
    <polygon fill="#5B5B5B" fill-opacity="1" points="-166440080,-25491372 -166440130,-25491386 -166440130,-25491358"
             xmlns=""/>
    <circle cx="614.2086791992188" cy="53.6042594909668" r="0.7200000286102295" stroke="#000000"
            stroke-width="0.23999999463558197" fill="#FFFFFF" fill-opacity="1"/>
    <path d="M345.3312,412.1075 A89.62582,89.62582 0 0 0 255.7054,322.4817" stroke="#50FFAF" stroke-width="0.48"
          stroke-linecap="round" stroke-linejoin="round" fill="none"/>
    <path d="M255.7054,322.4817 A89.62582,89.62582 0 0 0 166.07959,412.1075" stroke="#50FFAF" stroke-width="0.48"
          stroke-linecap="round" stroke-linejoin="round" fill="none"/>
    <path d="M166.07959,412.1075 A89.62582,89.62582 0 0 0 255.7054,501.7333" stroke="#50FFAF" stroke-width="0.48"
          stroke-linecap="round" stroke-linejoin="round" fill="none"/>
    <path d="M255.7054,501.7333 A89.62582,89.62582 0 0 0 345.3312,412.1075" stroke="#50FFAF" stroke-width="0.48"
          stroke-linecap="round" stroke-linejoin="round" fill="none"/>
    <path d="M614.2087,53.60426 L204.53171,338.52737" stroke="#1E96FF" stroke-width="0.24" stroke-linecap="round"
          stroke-linejoin="round" fill="none"/>
    <path d="M614.2087,53.60426 L329.28555,463.28122" stroke="#1E96FF" stroke-width="0.24" stroke-linecap="round"
          stroke-linejoin="round" fill="none"/>
</svg>