<?xml version="1.0" encoding="utf-8" standalone="no"?>
<!DOCTYPE svg PUBLIC "-//W3C//DTD SVG 1.1//EN" "http://www.w3.org/Graphics/SVG/1.1/DTD/svg11.dtd">
<svg version="1.1" width="791.76pt" height="575.76pt" viewBox="0 0 791.76 575.76" overflow="visible"
     xmlns="http://www.w3.org/2000/svg">
    <circle cx="406.7341003417969" cy="149.6256561279297" r="0.7200000286102295" stroke="#00D78C" stroke-width="0"
            fill="#00D78C" fill-opacity="1"/>
    <circle cx="460.43780517578125" cy="271.7445373535156" r="0.7200000286102295" stroke="#00D78C" stroke-width="0"
            fill="#00D78C" fill-opacity="1"/>
    <circle cx="306.1571350097656" cy="339.5904235839844" r="0.7200000286102295" stroke="#00D78C" stroke-width="0"
            fill="#00D78C" fill-opacity="1"/>
    <circle cx="306.1571350097656" cy="366.1755676269531" r="0.7200000286102295" stroke="#00D78C" stroke-width="0"
            fill="#00D78C" fill-opacity="1"/>
    <circle cx="470.2459716796875" cy="294.0478210449219" r="0.7200000286102295" stroke="#00D78C" stroke-width="0"
            fill="#00D78C" fill-opacity="1"/>
    <circle cx="491.5542907714844" cy="342.50152587890625" r="0.7200000286102295" stroke="#00D78C" stroke-width="0"
            fill="#00D78C" fill-opacity="1"/>
    <circle cx="521.1610107421875" cy="342.50152587890625" r="0.7200000286102295" stroke="#00D78C" stroke-width="0"
            fill="#00D78C" fill-opacity="1"/>
    <circle cx="495.0567321777344" cy="283.14190673828125" r="0.7200000286102295" stroke="#00D78C" stroke-width="0"
            fill="#00D78C" fill-opacity="1"/>
    <circle cx="603.35107421875" cy="235.53944396972656" r="0.7200000286102295" stroke="#00D78C" stroke-width="0"
            fill="#00D78C" fill-opacity="1"/>
    <circle cx="603.35107421875" cy="221.9228515625" r="0.7200000286102295" stroke="#00D78C" stroke-width="0"
            fill="#00D78C" fill-opacity="1"/>
    <circle cx="634.3285522460938" cy="221.9228515625" r="0.7200000286102295" stroke="#00D78C" stroke-width="0"
            fill="#00D78C" fill-opacity="1"/>
    <circle cx="697.6626586914062" cy="194.08335876464844" r="0.7200000286102295" stroke="#00D78C" stroke-width="0"
            fill="#00D78C" fill-opacity="1"/>
    <circle cx="697.6626586914062" cy="167.4233856201172" r="0.7200000286102295" stroke="#00D78C" stroke-width="0"
            fill="#00D78C" fill-opacity="1"/>
    <circle cx="485.2467346191406" cy="260.83465576171875" r="0.7200000286102295" stroke="#00D78C" stroke-width="0"
            fill="#00D78C" fill-opacity="1"/>
    <circle cx="436.3408508300781" cy="149.6256561279297" r="0.7200000286102295" stroke="#00D78C" stroke-width="0"
            fill="#00D78C" fill-opacity="1"/>
    <circle cx="406.7341003417969" cy="149.6256561279297" r="0.7200000286102295" stroke="#00D78C" stroke-width="0"
            fill="#00D78C" fill-opacity="1"/>
    <path d="M406.73413,149.62566 L460.43777,271.74454 L306.15717,339.59042 L306.15717,366.17557 L470.246,294.04782 L491.55426,342.50153 L521.161,342.50153 L495.0567,283.1419 L603.35114,235.53944 L603.35114,221.92284 L634.32855,221.92284 L697.66266,194.08336 L697.66266,167.42337 L485.24673,260.83466 L436.34085,149.62566 z"
          stroke="#00D78C" stroke-width="0.48" stroke-linecap="round" stroke-linejoin="round" fill="none"/>
    <path d="M384.2081,149.62566 L697.66266,149.62566 L697.66266,221.92284 L603.35114,221.92284 L603.35114,342.50153 L464.26035,342.50153 L464.26035,521.1181 L306.15717,521.1181 L306.15717,124.10901 z"
          stroke="#004BBE" stroke-width="0.24" stroke-linecap="round" stroke-linejoin="round" fill="none"/>
    <path d="M352.93768,27.295834 L559.3224,496.6021 L584.08856,485.5949 L377.70386,16.288637 z" stroke="#004BBE"
          stroke-width="0.24" stroke-linecap="round" stroke-linejoin="round" fill="none"/>
    <path d="M138.54778,413.29773 L713.6731,160.38268 L723.6796,182.64722 L148.30415,435.56226 z" stroke="#004BBE"
          stroke-width="0.24" stroke-linecap="round" stroke-linejoin="round" fill="none"/>
</svg>