<?xml version="1.0" encoding="utf-8" standalone="no"?>
<!DOCTYPE svg PUBLIC "-//W3C//DTD SVG 1.1//EN" "http://www.w3.org/Graphics/SVG/1.1/DTD/svg11.dtd">
<svg version="1.1" width="791.76pt" height="575.76pt" viewBox="0 0 791.76 575.76" overflow="visible"
     xmlns="http://www.w3.org/2000/svg">
    <circle cx="460.43780517578125" cy="271.7445373535156" r="0.7200000286102295" stroke="#00D78C" stroke-width="0"
            fill="#00D78C" fill-opacity="1"/>
    <circle cx="352.93768310546875" cy="27.295833587646484" r="0.7200000286102295" stroke="#00D78C" stroke-width="0"
            fill="#00D78C" fill-opacity="1"/>
    <circle cx="377.7038269042969" cy="16.28863525390625" r="0.7200000286102295" stroke="#00D78C" stroke-width="0"
            fill="#00D78C" fill-opacity="1"/>
    <circle cx="485.2467346191406" cy="260.83465576171875" r="0.7200000286102295" stroke="#00D78C" stroke-width="0"
            fill="#00D78C" fill-opacity="1"/>
    <circle cx="713.673095703125" cy="160.38267517089844" r="0.7200000286102295" stroke="#00D78C" stroke-width="0"
            fill="#00D78C" fill-opacity="1"/>
    <circle cx="723.6796264648438" cy="182.64720153808594" r="0.7200000286102295" stroke="#00D78C" stroke-width="0"
            fill="#00D78C" fill-opacity="1"/>
    <circle cx="495.0567321777344" cy="283.14190673828125" r="0.7200000286102295" stroke="#00D78C" stroke-width="0"
            fill="#00D78C" fill-opacity="1"/>
    <circle cx="584.0885009765625" cy="485.59490966796875" r="0.7200000286102295" stroke="#00D78C" stroke-width="0"
            fill="#00D78C" fill-opacity="1"/>
    <circle cx="559.3223266601562" cy="496.6020812988281" r="0.7200000286102295" stroke="#00D78C" stroke-width="0"
            fill="#00D78C" fill-opacity="1"/>
    <circle cx="470.2459716796875" cy="294.0478210449219" r="0.7200000286102295" stroke="#00D78C" stroke-width="0"
            fill="#00D78C" fill-opacity="1"/>
    <circle cx="148.3041534423828" cy="435.562255859375" r="0.7200000286102295" stroke="#00D78C" stroke-width="0"
            fill="#00D78C" fill-opacity="1"/>
    <circle cx="138.54776000976562" cy="413.2977294921875" r="0.7200000286102295" stroke="#00D78C" stroke-width="0"
            fill="#00D78C" fill-opacity="1"/>
    <circle cx="460.43780517578125" cy="271.7445373535156" r="0.7200000286102295" stroke="#00D78C" stroke-width="0"
            fill="#00D78C" fill-opacity="1"/>
    <path d="M460.43777,271.74454 L352.93768,27.295834 L377.70386,16.288637 L485.24673,260.83466 L713.6731,160.38268 L723.6796,182.64722 L495.05667,283.1419 L584.08856,485.5949 L559.3224,496.60208 L470.246,294.04782 L148.30415,435.56226 L138.54778,413.29773 z"
          stroke="#00D78C" stroke-width="0.48" stroke-linecap="round" stroke-linejoin="round" fill="none"/>
    <path d="M384.2081,149.62566 L697.66266,149.62566 L697.66266,221.92284 L603.35114,221.92284 L603.35114,342.50153 L464.26035,342.50153 L464.26035,521.1181 L306.15717,521.1181 L306.15717,124.10901 z"
          stroke="#004BBE" stroke-width="0.24" stroke-linecap="round" stroke-linejoin="round" fill="none"/>
    <path d="M352.93768,27.295834 L559.3224,496.6021 L584.08856,485.5949 L377.70386,16.288637 z" stroke="#004BBE"
          stroke-width="0.24" stroke-linecap="round" stroke-linejoin="round" fill="none"/>
    <path d="M138.54778,413.29773 L713.6731,160.38268 L723.6796,182.64722 L148.30415,435.56226 z" stroke="#004BBE"
          stroke-width="0.24" stroke-linecap="round" stroke-linejoin="round" fill="none"/>
</svg>