<?xml version="1.0" encoding="utf-8" standalone="no"?>
<!DOCTYPE svg PUBLIC "-//W3C//DTD SVG 1.1//EN" "http://www.w3.org/Graphics/SVG/1.1/DTD/svg11.dtd">
<svg version="1.1" width="612pt" height="792pt" viewBox="0 0 612 792" overflow="visible"
     xmlns="http://www.w3.org/2000/svg">
    <polygon fill="#5B5B5B" fill-opacity="1" points="-17776480,-2723652.5 -17776482,-2723646.8 -17776478,-2723646.8"
             xmlns=""/>
    <polygon fill="#5B5B5B" fill-opacity="1" points="-17776480,-2723621.8 -17776478,-2723627.5 -17776482,-2723627.5"
             xmlns=""/>
    <polygon fill="#5B5B5B" fill-opacity="1" points="-17776474,-2723664.8 -17776468,-2723663.5 -17776468,-2723666.2"
             xmlns=""/>
    <polygon fill="#5B5B5B" fill-opacity="1" points="-17776428,-2723664.8 -17776434,-2723666.2 -17776434,-2723663.5"
             xmlns=""/>
    <polygon fill="#5B5B5B" fill-opacity="1" points="-17776498,-2723368.5 -17776500,-2723362.8 -17776498,-2723362.8"
             xmlns=""/>
    <polygon fill="#5B5B5B" fill-opacity="1" points="-17776498,-2723338 -17776498,-2723343.8 -17776500,-2723343.8"
             xmlns=""/>
    <polygon fill="#5B5B5B" fill-opacity="1" points="-17776486,-2723366.5 -17776484,-2723372.2 -17776488,-2723372.2"
             xmlns=""/>
    <polygon fill="#5B5B5B" fill-opacity="1" points="-17776486,-2723339.8 -17776488,-2723334 -17776484,-2723334"
             xmlns=""/>
    <polygon fill="#5B5B5B" fill-opacity="1" points="-17776402,-2722415.8 -17776402,-2722410 -17776400,-2722410"
             xmlns=""/>
    <polygon fill="#5B5B5B" fill-opacity="1" points="-17776402,-2722442.8 -17776400,-2722448.5 -17776402,-2722448.5"
             xmlns=""/>
    <polygon fill="#5B5B5B" fill-opacity="1" points="-17776330,-2723994.8 -17776330,-2723989 -17776328,-2723989"
             xmlns=""/>
    <polygon fill="#5B5B5B" fill-opacity="1" points="-17776330,-2723937.5 -17776328,-2723943.2 -17776330,-2723943.2"
             xmlns=""/>
    <polygon fill="#5B5B5B" fill-opacity="1" points="-17775922,-2722950.2 -17775920,-2722956 -17775922,-2722956"
             xmlns=""/>
    <polygon fill="#5B5B5B" fill-opacity="1" points="-17775922,-2722923.2 -17775922,-2722917.5 -17775920,-2722917.5"
             xmlns=""/>
    <polygon fill="#5B5B5B" fill-opacity="1" points="-17776352,-2722064.8 -17776354,-2722059 -17776350,-2722059"
             xmlns=""/>
    <polygon fill="#5B5B5B" fill-opacity="1" points="-17776352,-2722024.5 -17776350,-2722030.2 -17776354,-2722030.2"
             xmlns=""/>
    <polygon fill="#5B5B5B" fill-opacity="1" points="-17776336,-2722020.8 -17776334,-2722026.5 -17776338,-2722026.5"
             xmlns=""/>
    <polygon fill="#5B5B5B" fill-opacity="1" points="-17776336,-2722064.8 -17776338,-2722059 -17776334,-2722059"
             xmlns=""/>
    <polygon fill="#5B5B5B" fill-opacity="1" points="-17776422,-2722051.2 -17776422,-2722057 -17776424,-2722057"
             xmlns=""/>
    <polygon fill="#5B5B5B" fill-opacity="1" points="-17776422,-2722024.5 -17776424,-2722018.8 -17776422,-2722018.8"
             xmlns=""/>
    <polygon fill="#5B5B5B" fill-opacity="1" points="-17776398,-2722069 -17776392,-2722067.5 -17776392,-2722070.2"
             xmlns=""/>
    <polygon fill="#5B5B5B" fill-opacity="1" points="-17776368,-2722069 -17776374,-2722070.2 -17776374,-2722067.5"
             xmlns=""/>
    <polygon fill="#5B5B5B" fill-opacity="1" points="-17776378,-2722446.5 -17776380,-2722440.8 -17776376,-2722440.8"
             xmlns=""/>
    <polygon fill="#5B5B5B" fill-opacity="1" points="-17776378,-2722415.8 -17776376,-2722421.5 -17776380,-2722421.5"
             xmlns=""/>
    <polygon fill="#5B5B5B" fill-opacity="1" points="-17776374,-2723903.8 -17776368,-2723902.2 -17776368,-2723905.2"
             xmlns=""/>
    <polygon fill="#5B5B5B" fill-opacity="1" points="-17776342,-2723903.8 -17776348,-2723905.2 -17776348,-2723902.2"
             xmlns=""/>
    <polygon fill="#5B5B5B" fill-opacity="1" points="-17776392,-2722751.8 -17776386,-2722750.2 -17776386,-2722753.2"
             xmlns=""/>
    <polygon fill="#5B5B5B" fill-opacity="1" points="-17776360,-2722751.8 -17776366,-2722753.2 -17776366,-2722750.2"
             xmlns=""/>
    <polygon fill="#5B5B5B" fill-opacity="1" points="-17776426,-2722794.2 -17776424,-2722800 -17776428,-2722800"
             xmlns=""/>
    <polygon fill="#5B5B5B" fill-opacity="1" points="-17776426,-2722863.2 -17776428,-2722857.5 -17776424,-2722857.5"
             xmlns=""/>
    <polygon fill="#5B5B5B" fill-opacity="1" points="-17775934,-2722950.2 -17775936,-2722944.5 -17775934,-2722944.5"
             xmlns=""/>
    <polygon fill="#5B5B5B" fill-opacity="1" points="-17775934,-2722919.5 -17775934,-2722925.2 -17775936,-2722925.2"
             xmlns=""/>
    <polygon fill="#5B5B5B" fill-opacity="1" points="-17776366,-2721997.8 -17776372,-2721999.2 -17776372,-2721996.2"
             xmlns=""/>
    <polygon fill="#5B5B5B" fill-opacity="1" points="-17776418,-2721997.8 -17776412,-2721996.2 -17776412,-2721999.2"
             xmlns=""/>
    <polygon fill="#5B5B5B" fill-opacity="1" points="-17776474,-2723386.5 -17776468,-2723385 -17776468,-2723388"
             xmlns=""/>
    <polygon fill="#5B5B5B" fill-opacity="1" points="-17776422,-2723386.5 -17776428,-2723388 -17776428,-2723385"
             xmlns=""/>
    <polygon fill="#5B5B5B" fill-opacity="1" points="-17776024,-2722888.8 -17776018,-2722887.2 -17776018,-2722890.2"
             xmlns=""/>
    <polygon fill="#5B5B5B" fill-opacity="1" points="-17775972,-2722888.8 -17775978,-2722890.2 -17775978,-2722887.2"
             xmlns=""/>
    <polygon fill="#5B5B5B" fill-opacity="1" points="-17776468,-2723656 -17776462,-2723654.8 -17776462,-2723657.5"
             xmlns=""/>
    <polygon fill="#5B5B5B" fill-opacity="1" points="-17776434,-2723656 -17776440,-2723657.5 -17776440,-2723654.8"
             xmlns=""/>
    <polygon fill="#5B5B5B" fill-opacity="1" points="-17776312,-2723923 -17776310,-2723928.8 -17776314,-2723928.8"
             xmlns=""/>
    <polygon fill="#5B5B5B" fill-opacity="1" points="-17776312,-2724009.2 -17776314,-2724003.5 -17776310,-2724003.5"
             xmlns=""/>
    <polygon fill="#5B5B5B" fill-opacity="1" points="-17776372,-2724027.2 -17776368,-2724025.8 -17776368,-2724028.8"
             xmlns=""/>
    <polygon fill="#5B5B5B" fill-opacity="1" points="-17776342,-2724027.2 -17776348,-2724028.8 -17776348,-2724025.8"
             xmlns=""/>
    <polygon fill="#5B5B5B" fill-opacity="1" points="-17776418,-2723650.5 -17776416,-2723656.2 -17776420,-2723656.2"
             xmlns=""/>
    <polygon fill="#5B5B5B" fill-opacity="1" points="-17776418,-2723623.8 -17776420,-2723618 -17776416,-2723618"
             xmlns=""/>
    <polygon fill="#5B5B5B" fill-opacity="1" points="-17776390,-2722766.2 -17776384,-2722764.8 -17776384,-2722767.5"
             xmlns=""/>
    <polygon fill="#5B5B5B" fill-opacity="1" points="-17776360,-2722766.2 -17776366,-2722767.5 -17776366,-2722764.8"
             xmlns=""/>
    <polygon fill="#5B5B5B" fill-opacity="1" points="-17776412,-2722846 -17776414,-2722840.2 -17776410,-2722840.2"
             xmlns=""/>
    <polygon fill="#5B5B5B" fill-opacity="1" points="-17776412,-2722794.2 -17776410,-2722800 -17776414,-2722800"
             xmlns=""/>
    <polygon fill="#5B5B5B" fill-opacity="1" points="-17776458,-2722469.5 -17776452,-2722468 -17776452,-2722470.8"
             xmlns=""/>
    <polygon fill="#5B5B5B" fill-opacity="1" points="-17776418,-2722469.5 -17776424,-2722470.8 -17776424,-2722468"
             xmlns=""/>
    <polygon fill="#5B5B5B" fill-opacity="1" points="-17776466,-2722442.8 -17776466,-2722437 -17776464,-2722437"
             xmlns=""/>
    <polygon fill="#5B5B5B" fill-opacity="1" points="-17776466,-2722389 -17776464,-2722394.8 -17776466,-2722394.8"
             xmlns=""/>
    <polygon fill="#5B5B5B" fill-opacity="1" points="-17776408,-2722010.2 -17776402,-2722008.8 -17776402,-2722011.8"
             xmlns=""/>
    <polygon fill="#5B5B5B" fill-opacity="1" points="-17776368,-2722010.2 -17776374,-2722011.8 -17776374,-2722008.8"
             xmlns=""/>
    <polygon fill="#5B5B5B" fill-opacity="1" points="-17776398,-2722090.5 -17776392,-2722089 -17776392,-2722092"
             xmlns=""/>
    <polygon fill="#5B5B5B" fill-opacity="1" points="-17776366,-2722090.5 -17776372,-2722092 -17776372,-2722089"
             xmlns=""/>
    <polygon fill="#5B5B5B" fill-opacity="1" points="-17776422,-2722457 -17776428,-2722458.2 -17776428,-2722455.5"
             xmlns=""/>
    <polygon fill="#5B5B5B" fill-opacity="1" points="-17776456,-2722457 -17776450,-2722455.5 -17776450,-2722458.2"
             xmlns=""/>
    <polygon fill="#5B5B5B" fill-opacity="1" points="-17775956,-2722950.2 -17775958,-2722944.5 -17775956,-2722944.5"
             xmlns=""/>
    <polygon fill="#5B5B5B" fill-opacity="1" points="-17775956,-2722919.5 -17775956,-2722925.2 -17775958,-2722925.2"
             xmlns=""/>
    <polygon fill="#5B5B5B" fill-opacity="1" points="-17776426,-2722362.5 -17776432,-2722363.8 -17776432,-2722361"
             xmlns=""/>
    <polygon fill="#5B5B5B" fill-opacity="1" points="-17776458,-2722362.5 -17776452,-2722361 -17776452,-2722363.8"
             xmlns=""/>
    <polygon fill="#5B5B5B" fill-opacity="1" points="-17775948,-2722965.8 -17775942,-2722964.2 -17775942,-2722967.2"
             xmlns=""/>
    <polygon fill="#5B5B5B" fill-opacity="1" points="-17775896,-2722965.8 -17775902,-2722967.2 -17775902,-2722964.2"
             xmlns=""/>
    <polygon fill="#5B5B5B" fill-opacity="1" points="-17775990,-2722965.5 -17775996,-2722967 -17775996,-2722964"
             xmlns=""/>
    <polygon fill="#5B5B5B" fill-opacity="1" points="-17776024,-2722965.5 -17776018,-2722964 -17776018,-2722967"
             xmlns=""/>
    <polygon fill="#5B5B5B" fill-opacity="1" points="-17775930,-2722900.8 -17775924,-2722899.2 -17775924,-2722902.2"
             xmlns=""/>
    <polygon fill="#5B5B5B" fill-opacity="1" points="-17775896,-2722900.8 -17775902,-2722902.2 -17775902,-2722899.2"
             xmlns=""/>
    <polygon fill="#5B5B5B" fill-opacity="1" points="-17776038,-2722950.2 -17776038,-2722956 -17776040,-2722956"
             xmlns=""/>
    <polygon fill="#5B5B5B" fill-opacity="1" points="-17776038,-2722923.2 -17776040,-2722917.5 -17776038,-2722917.5"
             xmlns=""/>
    <polygon fill="#5B5B5B" fill-opacity="1" points="-17776446,-2722020.8 -17776444,-2722026.5 -17776448,-2722026.5"
             xmlns=""/>
    <polygon fill="#5B5B5B" fill-opacity="1" points="-17776446,-2722051.2 -17776448,-2722045.5 -17776444,-2722045.5"
             xmlns=""/>
    <polygon fill="#5B5B5B" fill-opacity="1" points="-17776426,-2722377.8 -17776432,-2722379.2 -17776432,-2722376.5"
             xmlns=""/>
    <polygon fill="#5B5B5B" fill-opacity="1" points="-17776456,-2722377.8 -17776450,-2722376.5 -17776450,-2722379.2"
             xmlns=""/>
    <polygon fill="#5B5B5B" fill-opacity="1" points="-17776474,-2723371.5 -17776480,-2723373 -17776480,-2723370"
             xmlns=""/>
    <polygon fill="#5B5B5B" fill-opacity="1" points="-17776460,-2723371.5 -17776454,-2723370 -17776454,-2723373"
             xmlns=""/>
    <g id="Default">
        <path d="M370.67227,630.76855 L560.6692,507.33304 L399.71625,137.91406 L87.08151,274.12656 L221.95915,583.6975 z"
              stroke="#000000" stroke-width="0.24" stroke-linecap="round" stroke-linejoin="round" fill="none"/>
        <path d="M563.77026,514.4506 L398.95154,136.1589 L86.31681,272.37137 L221.95915,583.6975 L375.79056,636.5756 z"
              stroke="#000000" stroke-width="0.24" stroke-linecap="round" stroke-linejoin="round" fill="none"/>
    </g>
    <circle cx="563.770263671875" cy="514.45068359375" r="0.7200000286102295" stroke="#1E96FF" stroke-width="0"
            fill="#1E96FF" fill-opacity="1"/>
    <circle cx="398.9515380859375" cy="136.158935546875" r="0.7200000286102295" stroke="#1E96FF" stroke-width="0"
            fill="#1E96FF" fill-opacity="1"/>
    <circle cx="86.31683349609375" cy="272.37139892578125" r="0.7200000286102295" stroke="#1E96FF" stroke-width="0"
            fill="#1E96FF" fill-opacity="1"/>
    <circle cx="221.95916748046875" cy="583.697509765625" r="0.7200000286102295" stroke="#1E96FF" stroke-width="0"
            fill="#1E96FF" fill-opacity="1"/>
    <circle cx="375.79058837890625" cy="636.5756225585938" r="0.7200000286102295" stroke="#1E96FF" stroke-width="0"
            fill="#1E96FF" fill-opacity="1"/>
    <circle cx="370.67230224609375" cy="630.7685546875" r="0.7200000286102295" stroke="#1E96FF" stroke-width="0"
            fill="#1E96FF" fill-opacity="1"/>
    <circle cx="560.669189453125" cy="507.3330993652344" r="0.7200000286102295" stroke="#1E96FF" stroke-width="0"
            fill="#1E96FF" fill-opacity="1"/>
    <circle cx="399.71624755859375" cy="137.91409301757812" r="0.7200000286102295" stroke="#1E96FF" stroke-width="0"
            fill="#1E96FF" fill-opacity="1"/>
    <circle cx="87.08154296875" cy="274.1265869140625" r="0.7200000286102295" stroke="#1E96FF" stroke-width="0"
            fill="#1E96FF" fill-opacity="1"/>
    <circle cx="221.95916748046875" cy="583.697509765625" r="0.7200000286102295" stroke="#1E96FF" stroke-width="0"
            fill="#1E96FF" fill-opacity="1"/>
    <path d="M563.77026,514.4506 L398.95157,136.15894 L86.31681,272.37143 L221.95917,583.6976 L375.79056,636.5756 z"
          stroke="#1776FF" stroke-width="0.48" stroke-linecap="round" stroke-linejoin="round" fill="none"/>
    <path d="M370.6723,630.7686 L560.6692,507.33307 L399.71625,137.9141 L87.08156,274.12656 L221.95917,583.6976 z"
          stroke="#1776FF" stroke-width="0.48" stroke-linecap="round" stroke-linejoin="round" fill="none"/>
</svg>