<svg width="530" height="415" viewBox="0 0 530 415" fill="none" xmlns="http://www.w3.org/2000/svg">
    <rect width="530.001" height="415.008" fill="#666666"/>
    <path fill-rule="evenodd" clip-rule="evenodd"
          d="M209 36.877L0 261.161L165.098 415.008L374.773 190H513V35.9996H210.385L210.081 35.7168L209.818 35.9996H209V36.877Z"
          fill="#5B5A5A"/>
    <rect x="208.774" y="36.1617" width="303.092" height="153.021" transform="rotate(16.0421 208.774 36.1617)"
          stroke="#373737" stroke-dasharray="6 6"/>
    <rect x="209.868" y="37.7401" width="303.092" height="153.021" transform="rotate(-7.04663 209.868 37.7401)"
          stroke="#960000"/>
    <rect x="209.5" y="36.4995" width="303" height="153" stroke="#18A379"/>
    <rect x="0.706667" y="261.136" width="307.155" height="224.668" transform="rotate(-47.0203 0.706667 261.136)"
          stroke="#642020"/>
    <path d="M381.252 234L382.47 226.3H383.66L383.506 227.252H383.59C383.702 226.916 383.879 226.65 384.122 226.454C384.374 226.258 384.668 226.16 385.004 226.16C385.676 226.16 386.045 226.524 386.11 227.252H386.166C386.269 226.916 386.451 226.65 386.712 226.454C386.973 226.258 387.272 226.16 387.608 226.16C388.093 226.16 388.443 226.342 388.658 226.706C388.873 227.07 388.933 227.551 388.84 228.148L387.916 234H386.656L387.566 228.162C387.613 227.863 387.585 227.63 387.482 227.462C387.379 227.294 387.207 227.21 386.964 227.21C386.721 227.21 386.516 227.294 386.348 227.462C386.189 227.621 386.087 227.854 386.04 228.162L385.116 234H384.052L384.962 228.162C385.009 227.863 384.976 227.63 384.864 227.462C384.752 227.294 384.575 227.21 384.332 227.21C383.828 227.21 383.529 227.527 383.436 228.162L382.512 234H381.252ZM392.461 234.14C391.686 234.14 391.112 233.883 390.739 233.37C390.375 232.857 390.263 232.152 390.403 231.256L390.753 229.044C390.893 228.157 391.229 227.457 391.761 226.944C392.302 226.421 392.96 226.16 393.735 226.16C394.304 226.16 394.747 226.305 395.065 226.594C395.391 226.883 395.55 227.275 395.541 227.77H395.583L395.793 226.3H397.179L395.961 234H394.589L394.827 232.53H394.799C394.649 233.034 394.365 233.431 393.945 233.72C393.534 234 393.039 234.14 392.461 234.14ZM393.133 232.936C393.627 232.936 394.043 232.782 394.379 232.474C394.724 232.166 394.939 231.732 395.023 231.172L395.345 229.114C395.429 228.563 395.349 228.134 395.107 227.826C394.873 227.518 394.509 227.364 394.015 227.364C393.501 227.364 393.077 227.518 392.741 227.826C392.414 228.125 392.209 228.554 392.125 229.114L391.803 231.172C391.719 231.741 391.789 232.18 392.013 232.488C392.246 232.787 392.619 232.936 393.133 232.936ZM397.887 234L401.177 229.996L399.273 226.3H400.855L401.891 228.554C401.938 228.666 401.984 228.783 402.031 228.904C402.078 229.025 402.115 229.123 402.143 229.198C402.18 229.123 402.236 229.025 402.311 228.904C402.395 228.783 402.474 228.666 402.549 228.554L404.285 226.3H405.923L402.843 230.094L404.859 234H403.291L402.143 231.578C402.096 231.475 402.045 231.359 401.989 231.228C401.942 231.088 401.905 230.976 401.877 230.892C401.821 230.976 401.751 231.088 401.667 231.228C401.583 231.359 401.499 231.475 401.415 231.578L399.511 234H397.887ZM417.644 234.14C416.869 234.14 416.295 233.883 415.922 233.37C415.558 232.857 415.446 232.152 415.586 231.256L415.936 229.044C416.076 228.157 416.412 227.457 416.944 226.944C417.485 226.421 418.143 226.16 418.918 226.16C419.487 226.16 419.931 226.305 420.248 226.594C420.575 226.883 420.733 227.275 420.724 227.77H420.766L420.976 226.3H422.362L421.144 234H419.772L420.01 232.53H419.982C419.833 233.034 419.548 233.431 419.128 233.72C418.717 234 418.223 234.14 417.644 234.14ZM418.316 232.936C418.811 232.936 419.226 232.782 419.562 232.474C419.907 232.166 420.122 231.732 420.206 231.172L420.528 229.114C420.612 228.563 420.533 228.134 420.29 227.826C420.057 227.518 419.693 227.364 419.198 227.364C418.685 227.364 418.26 227.518 417.924 227.826C417.597 228.125 417.392 228.554 417.308 229.114L416.986 231.172C416.902 231.741 416.972 232.18 417.196 232.488C417.429 232.787 417.803 232.936 418.316 232.936ZM423.589 234L424.807 226.3H426.179L425.941 227.77H425.969C426.118 227.257 426.393 226.86 426.795 226.58C427.196 226.3 427.691 226.16 428.279 226.16C429.044 226.16 429.613 226.403 429.987 226.888C430.369 227.373 430.495 228.027 430.365 228.848L429.553 234H428.167L428.951 229.002C429.035 228.479 428.96 228.073 428.727 227.784C428.493 227.485 428.134 227.336 427.649 227.336C427.145 227.336 426.725 227.495 426.389 227.812C426.053 228.12 425.838 228.554 425.745 229.114L424.975 234H423.589ZM432.585 236.52L432.781 235.288H435.189C435.955 235.288 436.398 234.924 436.519 234.196L436.659 233.314L436.911 231.914H436.883C436.743 232.409 436.468 232.801 436.057 233.09C435.656 233.379 435.166 233.524 434.587 233.524C433.803 233.524 433.22 233.263 432.837 232.74C432.464 232.217 432.347 231.513 432.487 230.626L432.725 229.044C432.865 228.157 433.206 227.457 433.747 226.944C434.298 226.421 434.97 226.16 435.763 226.16C436.333 226.16 436.776 226.305 437.093 226.594C437.42 226.874 437.569 227.266 437.541 227.77L437.779 226.3H439.151L437.905 234.21C437.784 234.929 437.467 235.493 436.953 235.904C436.44 236.315 435.787 236.52 434.993 236.52H432.585ZM435.217 232.32C435.712 232.32 436.127 232.166 436.463 231.858C436.799 231.55 437.014 231.116 437.107 230.556L437.317 229.114C437.411 228.563 437.336 228.134 437.093 227.826C436.86 227.518 436.491 227.364 435.987 227.364C435.483 227.364 435.063 227.518 434.727 227.826C434.401 228.125 434.191 228.554 434.097 229.114L433.887 230.556C433.794 231.125 433.864 231.564 434.097 231.872C434.331 232.171 434.704 232.32 435.217 232.32ZM444.312 234C443.612 234 443.084 233.795 442.73 233.384C442.375 232.973 442.249 232.427 442.352 231.746L443.416 225.04H441.092L441.302 223.78H445.012L443.738 231.746C443.691 232.054 443.738 232.297 443.878 232.474C444.027 232.651 444.246 232.74 444.536 232.74H447.07L446.874 234H444.312ZM451.712 234.14C450.788 234.14 450.098 233.869 449.64 233.328C449.183 232.787 449.024 232.068 449.164 231.172L449.486 229.114C449.58 228.526 449.785 228.013 450.102 227.574C450.42 227.126 450.826 226.781 451.32 226.538C451.815 226.286 452.37 226.16 452.986 226.16C453.91 226.16 454.601 226.431 455.058 226.972C455.525 227.513 455.684 228.227 455.534 229.114L455.324 230.486H450.62L450.508 231.172C450.312 232.385 450.779 232.992 451.908 232.992C452.832 232.992 453.42 232.665 453.672 232.012H455.044C454.848 232.665 454.447 233.183 453.84 233.566C453.234 233.949 452.524 234.14 451.712 234.14ZM450.83 229.114L450.774 229.492H454.134L454.19 229.114C454.284 228.526 454.214 228.078 453.98 227.77C453.756 227.453 453.364 227.294 452.804 227.294C452.254 227.294 451.81 227.453 451.474 227.77C451.138 228.078 450.924 228.526 450.83 229.114Z"
          fill="#1B1B1B"/>
    <path d="M351.307 215.761C356.297 220.351 362.513 223.392 369.2 224.516C375.886 225.64 382.755 224.797 388.972 222.09C395.188 219.384 400.485 214.93 404.218 209.27C407.951 203.61 409.959 196.987 409.999 190.207L408.022 190.195C407.984 196.592 406.089 202.841 402.567 208.181C399.045 213.521 394.047 217.723 388.182 220.277C382.317 222.831 375.836 223.626 369.528 222.566C363.219 221.506 357.354 218.636 352.646 214.305L351.307 215.761Z"
          fill="#1B1B1B" fill-opacity="0.53"/>
</svg>
